Coordinates
version=1
nRows=4
nColumns=114
inDegrees=yes

Units are S.I. units (second, meters, Newtons, ...)
If the header above contains a line with 'inDegrees', this indicates whether rotational values are in degrees (yes) or radians (no).

endheader 
time	pelvis_tilt	pelvis_list	pelvis_rotation	pelvis_tx	pelvis_ty	pelvis_tz	hip_flexion_l	hip_adduction_l	hip_rotation_l	hip_flexion_r	hip_adduction_r	hip_rotation_r	knee_angle_l	knee_angle_r	ankle_angle_l	ankle_angle_r	subtalar_angle_l	subtalar_angle_r	mtp_angle_l	mtp_angle_r	lumbar_extension	lumbar_bending	lumbar_rotation	arm_flex_l	arm_add_l	arm_rot_l	arm_flex_r	arm_add_r	arm_rot_r	elbow_flex_l	elbow_flex_r	pro_sup_l	pro_sup_r	addbrev_l/activation	addlong_l/activation	addmagDist_l/activation	addmagIsch_l/activation	addmagMid_l/activation	addmagProx_l/activation	bflh_l/activation	bfsh_l/activation	edl_l/activation	ehl_l/activation	fdl_l/activation	fhl_l/activation	gaslat_l/activation	gasmed_l/activation	glmax1_l/activation	glmax2_l/activation	glmax3_l/activation	glmed1_l/activation	glmed2_l/activation	glmed3_l/activation	glmin1_l/activation	glmin2_l/activation	glmin3_l/activation	grac_l/activation	iliacus_l/activation	perbrev_l/activation	perlong_l/activation	piri_l/activation	psoas_l/activation	recfem_l/activation	sart_l/activation	semimem_l/activation	semiten_l/activation	soleus_l/activation	tfl_l/activation	tibant_l/activation	tibpost_l/activation	vasint_l/activation	vaslat_l/activation	vasmed_l/activation	addbrev_r/activation	addlong_r/activation	addmagDist_r/activation	addmagIsch_r/activation	addmagMid_r/activation	addmagProx_r/activation	bflh_r/activation	bfsh_r/activation	edl_r/activation	ehl_r/activation	fdl_r/activation	fhl_r/activation	gaslat_r/activation	gasmed_r/activation	glmax1_r/activation	glmax2_r/activation	glmax3_r/activation	glmed1_r/activation	glmed2_r/activation	glmed3_r/activation	glmin1_r/activation	glmin2_r/activation	glmin3_r/activation	grac_r/activation	iliacus_r/activation	perbrev_r/activation	perlong_r/activation	piri_r/activation	psoas_r/activation	recfem_r/activation	sart_r/activation	semimem_r/activation	semiten_r/activation	soleus_r/activation	tfl_r/activation	tibant_r/activation	tibpost_r/activation	vasint_r/activation	vaslat_r/activation	vasmed_r/activation	
          6.45500000	        -41.70116186	         33.53600746	        -21.70198602	         -4.58097744	          1.26271659	          0.49717535	         56.20672332	         -9.68181035	        -32.38227860	          9.74326631	        -10.31264007	        -10.44611874	         83.79903962	          2.10207976	          2.96917511	          6.95242918	        -10.38956568	         25.95493601	          0.23802215	         -0.24700345	         -7.69913572	        -38.19382282	          9.29947794	        -72.62592428	        -55.98983877	        132.26760435	         83.90057820	         17.92548282	         19.56030047	          6.14560173	         96.91233386	         52.26103750	        111.50804003	          0.17905291	          0.08438255	          0.01000000	          0.01000000	          0.12430321	          0.74243228	          0.92400892	          0.99999997	          0.40335930	          0.38194324	          0.02335867	          0.06989980	          0.66400872	          0.48391258	          0.00999999	          0.01000000	          0.01000001	          0.00999999	          0.01000000	          0.66228068	          0.00999999	          0.01000000	          0.50819001	          0.02451139	          0.08438255	          0.42432557	          0.34995767	          1.00000000	          1.00000000	          0.41920147	          1.00000000	          0.04228573	          0.01000000	          0.03881236	          0.33592370	          0.51090336	          0.03926661	          0.01314444	          0.49261729	          0.01000013	          0.14253159	          0.01509970	          0.00999999	          0.00999999	          0.66228071	          0.66228072	          0.01305071	          1.00000000	          0.66907767	          0.37159572	          0.26380811	          0.10223652	          1.00000000	          1.00000001	          0.08438255	          0.00999999	          0.00999999	          0.88036044	          0.43861574	          0.09476858	          0.43861573	          1.00000000	          0.34103198	          0.66228074	          0.19189517	          0.51273193	          0.99999997	          0.13042038	          1.00000001	          1.00000001	          1.00000001	          0.13243238	          0.01000000	          0.22157183	          0.36628559	          0.30920074	          0.36711903	          0.00999999	          0.00999999	          0.00999999	
          6.47526316	        -39.55237756	         32.36143529	        -24.42587532	         -4.46309642	          1.25953860	          0.48378224	         53.77262178	        -11.11493848	        -32.04250623	          6.10880581	         -9.79632170	         -4.64562531	         76.80999098	          8.24779745	         -1.66521753	         -5.03166400	        -12.53718342	         23.87391274	          0.31418292	          0.00451993	         -5.55290252	        -36.72937282	         12.89001148	        -65.30711923	        -52.94263196	        120.60002275	         81.95821586	         11.12108322	         24.11894318	          5.69497712	         93.10705978	         24.18366511	        108.36530054	          0.11858329	          0.05588493	          0.01000002	          0.01664278	          0.08232362	          0.49169858	          1.00000000	          0.99999991	          0.56143667	          0.25295395	          0.02282290	          0.05197925	          0.43976017	          0.32048597	          0.01509924	          0.53277798	          0.01000002	          0.01000007	          0.01509929	          0.99999999	          0.01000009	          0.01000083	          0.99999997	          0.01623342	          0.05588494	          0.34017750	          0.27101502	          0.99999978	          0.66228070	          0.27762905	          0.99999998	          0.60483583	          0.03343983	          0.02570469	          0.27266739	          0.43204200	          0.04432196	          0.01000002	          0.40244515	          0.01000001	          0.09439593	          0.01000025	          0.01000005	          0.01000001	          0.85478648	          1.00000001	          0.04330406	          0.66228071	          0.62915520	          0.24610067	          0.17471503	          0.06770929	          0.66228072	          0.66228072	          0.11344876	          0.03442486	          0.02279901	          0.58304573	          0.29048675	          1.00000000	          0.29048674	          0.66228071	          1.00000000	          0.99999999	          0.12708847	          1.00000000	          0.99999998	          1.00000001	          0.66228071	          0.70107479	          0.99999996	          0.08770741	          0.01263261	          0.32493900	          0.99999993	          0.20477768	          0.24313585	          0.07164752	          0.05197941	          0.07848536	
          6.49552632	        -36.59949882	         31.54594371	        -24.76028198	         -4.33868052	          1.25514325	          0.46180518	         50.77574435	         -8.16256449	        -29.66556786	          1.04802258	        -10.64288185	         -0.50884807	         70.42074513	         14.01532911	         -3.75610096	        -16.69728989	        -13.74408614	         17.22070027	          0.36222152	          0.38443943	         -5.28314642	        -33.50430757	         13.87490972	        -55.34757588	        -48.01754576	        117.02581332	         73.84147387	          2.09870989	         34.89001083	          4.11808918	         92.16465652	          3.02658239	        103.33445759	          0.07853543	          0.03701151	          0.01000008	          0.01102220	          0.05452136	          0.39688033	          0.79113253	          0.99999992	          0.74332739	          0.25687272	          0.01511537	          0.03442488	          0.29124468	          0.21225167	          0.01000001	          0.35284858	          0.21839941	          0.00999999	          0.01000000	          0.66228073	          0.01000000	          0.01000000	          0.66228071	          0.01075109	          0.03701152	          0.22529320	          0.18036529	          0.70606351	          0.43861573	          0.26936959	          0.99999997	          0.98025802	          0.60202072	          0.01702373	          0.18058265	          0.45938583	          0.02935361	          0.01000002	          0.26653166	          0.01000001	          1.00000000	          1.00000001	          0.01000000	          0.01000000	          0.56610860	          0.99999968	          0.02867944	          1.00000000	          0.41667736	          0.16298783	          0.11850631	          0.04484256	          0.55860768	          0.43906809	          0.07513492	          0.02279892	          0.01509935	          1.00000000	          0.19238377	          0.66228070	          0.99999999	          0.99999992	          0.66228071	          0.98112941	          1.00000001	          0.66228087	          0.66228072	          0.66228072	          1.00000000	          1.00000001	          0.99999997	          0.05808693	          0.01000000	          0.21520083	          0.99999990	          0.13562031	          0.17250796	          0.04745077	          0.03442496	          0.05197934	
          6.51578947	        -34.56369465	         32.75103387	        -25.86091842	         -4.21536809	          1.24736367	          0.43814992	         48.12281095	         -4.86486618	        -28.71348334	         -0.85032814	        -12.28602008	          2.17146527	         65.02401714	         19.37050220	         -2.43432896	        -26.54890539	        -13.63017067	          9.06941325	          0.35765756	          0.81952821	         -1.87202712	        -31.55026931	         17.72096492	        -44.22308668	        -42.32913938	        117.00081250	         60.63841676	         -8.57296430	         49.00931306	          2.74864455	         91.82273487	         -6.74278132	         95.38183221	          0.05201254	          0.02451204	          0.01000010	          0.01304136	          0.03610849	          0.26284624	          0.99999984	          0.99999978	          0.96768557	          0.41372481	          0.01001084	          0.02279897	          0.19288573	          0.14057019	          0.01000038	          0.84144301	          0.14464174	          0.01000019	          0.01004616	          0.94861364	          0.01000026	          0.01000101	          0.99999999	          0.01363214	          0.02451206	          0.22039028	          0.13152694	          0.46761228	          0.29048678	          0.17839829	          0.99999973	          0.99999994	          0.39870693	          0.01127450	          0.31261540	          0.65001502	          0.01944039	          0.01000005	          0.23696913	          0.01000003	          0.99999999	          1.00000000	          0.01000002	          0.01000001	          0.99999998	          0.99999999	          0.01899384	          0.66228074	          0.47716840	          0.37606791	          0.07848449	          0.07848544	          0.36995509	          0.29078632	          0.04976041	          0.01509929	          0.01000001	          0.66228070	          0.12741206	          0.43861573	          0.99999949	          0.66228072	          0.99999970	          0.99999997	          0.99999998	          0.54747051	          0.43861575	          1.00000001	          0.99999999	          0.91890413	          0.99999994	          0.03846985	          0.01000001	          0.14252336	          0.99999992	          0.14021256	          0.11424870	          0.03142573	          0.02279899	          0.03442492	
